<svg xmlns="http://www.w3.org/2000/svg" xmlns:xlink="http://www.w3.org/1999/xlink" width="2028" zoomAndPan="magnify" viewBox="0 0 1521 1124.99995" height="1500" preserveAspectRatio="xMidYMid meet" version="1.0"><defs><clipPath id="2ec57458c0"><path d="M 17.394531 823.75 L 132.773438 823.75 L 132.773438 937 L 17.394531 937 Z M 17.394531 823.75 " clip-rule="nonzero"/></clipPath><clipPath id="1a14896cd8"><path d="M 37.757812 906.6875 L 41.320312 896.992188 L 107.125 896.992188 L 110.6875 906.6875 Z M 17.394531 936.921875 L 69.121094 823.75 L 80.917969 823.75 L 132.667969 936.921875 L 120.050781 936.921875 L 72.53125 830.699219 L 77.378906 830.699219 L 29.832031 936.921875 Z M 17.394531 936.921875 " clip-rule="nonzero"/></clipPath><clipPath id="1c3a1b7e1c"><path d="M 266 372 L 598.046875 372 L 598.046875 705 L 266 705 Z M 266 372 " clip-rule="nonzero"/></clipPath><clipPath id="7e7b52461f"><path d="M 381.082031 372.773438 C 307.066406 373.039062 266.050781 436.121094 266.050781 488.246094 C 266.050781 496.082031 266.050781 663.300781 266.050781 663.300781 C 266.050781 686.210938 284.621094 704.804688 307.550781 704.804688 C 330.484375 704.804688 349.074219 686.234375 349.074219 663.300781 L 349.074219 497.230469 C 349.074219 477.222656 364.8125 455.730469 390.554688 455.730469 L 556.582031 455.664062 C 579.46875 455.664062 598.039062 437.09375 598.039062 414.207031 C 598.039062 391.386719 579.621094 372.882812 556.847656 372.75 Z M 381.082031 372.773438 " clip-rule="nonzero"/></clipPath><clipPath id="996419e97a"><path d="M 17.046875 123.546875 L 350 123.546875 L 350 456 L 17.046875 456 Z M 17.046875 123.546875 " clip-rule="nonzero"/></clipPath><clipPath id="6535422549"><path d="M 307.640625 123.566406 C 284.730469 123.566406 266.140625 142.136719 266.140625 165.066406 L 266.140625 331.140625 C 266.140625 351.148438 250.402344 372.640625 224.660156 372.640625 L 58.632812 372.707031 C 35.746094 372.707031 17.175781 391.277344 17.175781 414.164062 C 17.175781 436.984375 35.59375 455.488281 58.367188 455.621094 L 234.113281 455.621094 C 308.128906 455.355469 349.140625 392.273438 349.140625 340.148438 C 349.140625 332.3125 349.140625 165.089844 349.140625 165.089844 C 349.140625 142.136719 330.570312 123.566406 307.640625 123.566406 Z M 307.640625 123.566406 " clip-rule="nonzero"/></clipPath><clipPath id="218cadca7a"><path d="M 17.046875 372 L 100.992188 372 L 100.992188 456 L 17.046875 456 Z M 17.046875 372 " clip-rule="nonzero"/></clipPath><clipPath id="78a6feb3ce"><path d="M 58.566406 372.617188 C 81.476562 372.617188 100.070312 391.1875 100.070312 414.117188 C 100.070312 437.050781 81.5 455.621094 58.566406 455.621094 C 35.636719 455.621094 17.066406 437.027344 17.066406 414.117188 C 17.066406 391.210938 35.636719 372.617188 58.566406 372.617188 " clip-rule="nonzero"/></clipPath><clipPath id="2773816167"><path d="M 266 123.546875 L 350 123.546875 L 350 207 L 266 207 Z M 266 123.546875 " clip-rule="nonzero"/></clipPath><clipPath id="3ca8a097f6"><path d="M 349.164062 165.066406 C 349.164062 187.976562 330.59375 206.570312 307.664062 206.570312 C 284.730469 206.570312 266.160156 188 266.160156 165.066406 C 266.160156 142.136719 284.753906 123.566406 307.683594 123.566406 C 330.617188 123.566406 349.1875 142.160156 349.1875 165.066406 " clip-rule="nonzero"/></clipPath><clipPath id="71cd965df6"><path d="M 140 246 L 224 246 L 224 330 L 140 330 Z M 140 246 " clip-rule="nonzero"/></clipPath><clipPath id="ad9791cb0f"><path d="M 182.007812 246.566406 C 159.101562 246.566406 140.507812 265.136719 140.507812 288.066406 C 140.507812 310.996094 159.078125 329.566406 182.007812 329.566406 C 204.875 329.566406 223.421875 311.0625 223.511719 288.222656 L 223.511719 287.910156 C 223.421875 265.070312 204.875 246.566406 182.007812 246.566406 Z M 182.007812 246.566406 " clip-rule="nonzero"/></clipPath><clipPath id="9ae55c8a8b"><path d="M 391 497 L 475 497 L 475 580.835938 L 391 580.835938 Z M 391 497 " clip-rule="nonzero"/></clipPath><clipPath id="7ef310b5bc"><path d="M 433.273438 497.5625 C 410.363281 497.5625 391.773438 516.132812 391.773438 539.066406 C 391.773438 561.949219 410.296875 580.5 433.164062 580.566406 L 433.382812 580.566406 C 456.179688 580.5 474.640625 562.082031 474.773438 539.308594 L 474.773438 538.820312 C 474.640625 516 456.113281 497.5625 433.273438 497.5625 Z M 433.273438 497.5625 " clip-rule="nonzero"/></clipPath><clipPath id="b070c75ad1"><path d="M 266 621 L 349 621 L 349 705 L 266 705 Z M 266 621 " clip-rule="nonzero"/></clipPath><clipPath id="8832d968a6"><path d="M 307.53125 621.867188 C 284.6875 621.867188 266.160156 640.328125 266.074219 663.148438 L 266.074219 663.523438 C 266.160156 686.1875 284.464844 704.558594 307.085938 704.804688 L 307.972656 704.804688 C 330.660156 704.558594 348.988281 686.101562 348.988281 663.347656 C 348.988281 640.460938 330.417969 621.890625 307.53125 621.890625 Z M 307.53125 621.867188 " clip-rule="nonzero"/></clipPath><clipPath id="758342a1c2"><path d="M 515 372 L 598.046875 372 L 598.046875 456 L 515 456 Z M 515 372 " clip-rule="nonzero"/></clipPath><clipPath id="db990fc37c"><path d="M 556.535156 372.773438 C 533.671875 372.773438 515.125 391.277344 515.035156 414.117188 L 515.035156 414.429688 C 515.125 437.269531 533.671875 455.773438 556.535156 455.773438 C 579.3125 455.773438 597.816406 437.425781 598.039062 414.695312 L 598.039062 413.875 C 597.816406 391.144531 579.3125 372.792969 556.535156 372.792969 Z M 556.535156 372.773438 " clip-rule="nonzero"/></clipPath><clipPath id="d5158d2612"><path d="M 185 819 L 278 819 L 278 937 L 185 937 Z M 185 819 " clip-rule="nonzero"/></clipPath><clipPath id="e1c9f95db2"><path d="M 231.996094 873.488281 C 242.574219 873.488281 249.171875 867.222656 249.171875 857.796875 C 249.171875 847.722656 242.398438 842.257812 231.820312 842.257812 L 214.644531 842.257812 L 214.644531 873.488281 Z M 185.070312 819.148438 L 236.777344 819.148438 C 262.871094 819.148438 277.902344 835.175781 277.902344 856.976562 C 277.902344 876.300781 266.015625 896.132812 237.265625 896.132812 L 214.644531 896.132812 L 214.644531 936.945312 L 185.070312 936.945312 Z M 185.070312 819.148438 " clip-rule="nonzero"/></clipPath><clipPath id="e07631ec24"><path d="M 279 848 L 360.515625 848 L 360.515625 939.640625 L 279 939.640625 Z M 279 848 " clip-rule="nonzero"/></clipPath><clipPath id="c18a9e4c9e"><path d="M 334.300781 884.398438 L 334.300781 881.589844 C 334.300781 872.492188 328.191406 868.375 320.929688 868.375 C 313.671875 868.375 307.050781 872.667969 307.050781 882.097656 L 307.050781 884.398438 Z M 279.273438 903.234375 L 279.273438 887.210938 C 279.273438 860.785156 300.078125 848.234375 321.550781 848.234375 C 341.382812 848.234375 360.039062 859.964844 360.039062 883.582031 L 360.039062 900.269531 L 307.03125 900.269531 L 307.03125 903.898438 C 307.03125 913.640625 316.4375 918.109375 325.355469 918.109375 C 332.949219 918.109375 343.707031 913.972656 348 910.1875 L 358.402344 925.546875 C 349.484375 934.644531 336.09375 939.09375 321.902344 939.09375 C 300.101562 939.09375 279.273438 928.511719 279.273438 903.234375 " clip-rule="nonzero"/></clipPath><clipPath id="3b5dfbac81"><path d="M 374.722656 848.234375 L 437 848.234375 L 437 937 L 374.722656 937 Z M 374.722656 848.234375 " clip-rule="nonzero"/></clipPath><clipPath id="983bec43e1"><path d="M 374.9375 850.027344 L 401.695312 850.027344 L 401.695312 864.414062 L 401.875 864.414062 C 406.5 855.980469 417.566406 848.566406 428.300781 848.566406 C 430.78125 848.566406 434.253906 848.742188 436.890625 849.40625 L 436.890625 872.824219 C 432.75 872.160156 427.792969 871.828125 425.335938 871.828125 C 413.9375 871.828125 402.207031 876.609375 402.207031 891.636719 L 402.207031 936.925781 L 374.9375 936.925781 Z M 374.9375 850.027344 " clip-rule="nonzero"/></clipPath><clipPath id="c5dd4f8fbb"><path d="M 447.597656 816.121094 L 490.210938 816.121094 L 490.210938 937 L 447.597656 937 Z M 447.597656 816.121094 " clip-rule="nonzero"/></clipPath><clipPath id="0c70ae54b4"><path d="M 447.667969 872.09375 L 447.667969 841.949219 C 447.667969 823.773438 460.0625 816.339844 475.09375 816.339844 C 479.542969 816.339844 484.832031 816.515625 489.789062 817.820312 L 489.789062 836.65625 C 487.15625 836.324219 484.011719 836.171875 481.355469 836.171875 C 477.550781 836.171875 474.738281 837.984375 474.738281 842.277344 L 474.738281 849.914062 L 490.097656 849.914062 L 490.097656 868.042969 L 474.738281 868.042969 L 474.738281 936.925781 L 447.667969 936.925781 L 447.667969 872.070312 Z M 447.667969 872.09375 " clip-rule="nonzero"/></clipPath><clipPath id="d2d5ba738c"><path d="M 547.027344 848 L 630.402344 848 L 630.402344 939 L 547.027344 939 Z M 547.027344 848 " clip-rule="nonzero"/></clipPath><clipPath id="8c43858f13"><path d="M 602.5625 904.386719 L 602.5625 882.894531 C 602.5625 874.460938 596.609375 869.015625 588.527344 869.015625 C 580.449219 869.015625 574.652344 873.976562 574.652344 883.382812 L 574.652344 904.695312 C 574.652344 913.128906 580.117188 918.242188 588.859375 918.242188 C 596.628906 918.242188 602.585938 913.617188 602.585938 904.363281 Z M 547.050781 904.054688 L 547.050781 885.21875 C 547.050781 860.097656 568.03125 848.210938 588.175781 848.210938 C 608.316406 848.210938 630.140625 859.609375 630.140625 884.710938 L 630.140625 902.726562 C 630.140625 928.003906 608.339844 938.914062 588.839844 938.914062 C 568.011719 938.914062 547.050781 929.15625 547.050781 904.054688 Z M 547.050781 904.054688 " clip-rule="nonzero"/></clipPath><clipPath id="91b4d6e5fb"><path d="M 634.726562 848 L 715.628906 848 L 715.628906 939 L 634.726562 939 Z M 634.726562 848 " clip-rule="nonzero"/></clipPath><clipPath id="91fc383bfd"><path d="M 634.988281 925.546875 L 649.199219 909.191406 C 655.308594 915.144531 664.734375 919.59375 674.144531 919.59375 C 680.40625 919.59375 687.511719 917.933594 687.511719 912.3125 C 687.511719 907.199219 683.550781 905.871094 676.601562 904.542969 C 676.113281 904.363281 675.605469 904.542969 661.238281 901.066406 C 647.359375 897.769531 638.773438 890.820312 638.773438 877.761719 C 638.773438 860.585938 653.800781 848.011719 675.273438 848.011719 C 691.960938 848.011719 701.542969 851.308594 711.285156 859.566406 L 695.746094 874.59375 C 690.125 869.480469 682.53125 867.003906 675.757812 867.003906 C 668.5 867.003906 664.203125 869.148438 664.203125 873.929688 C 664.203125 878.710938 670.46875 879.375 676.421875 880.546875 L 691.453125 883.691406 C 706.988281 886.988281 715.402344 896.085938 715.402344 908.480469 C 715.402344 929.621094 693.753906 938.894531 675.425781 938.894531 C 659.734375 938.894531 646.519531 936.238281 634.964844 925.523438 Z M 634.988281 925.546875 " clip-rule="nonzero"/></clipPath><clipPath id="50943d7679"><path d="M 505.03125 852 L 532.824219 852 L 532.824219 937 L 505.03125 937 Z M 505.03125 852 " clip-rule="nonzero"/></clipPath><clipPath id="29ffdbedff"><path d="M 505.394531 868 L 505.394531 936.925781 L 532.664062 936.925781 L 532.664062 852.261719 L 509.246094 865.785156 Z M 505.394531 868 " clip-rule="nonzero"/></clipPath><clipPath id="7ffd24f988"><path d="M 505.03125 805.003906 L 532.824219 805.003906 L 532.824219 852.558594 L 505.03125 852.558594 Z M 505.03125 805.003906 " clip-rule="nonzero"/></clipPath><clipPath id="9c397c582f"><path d="M 505.394531 805.027344 L 505.394531 836.503906 L 532.664062 852.238281 L 532.664062 820.765625 Z M 505.394531 805.027344 " clip-rule="nonzero"/></clipPath><clipPath id="6b9b68523d"><path d="M 504 803 L 534 803 L 534 854.410156 L 504 854.410156 Z M 504 803 " clip-rule="nonzero"/></clipPath><clipPath id="9f5a6ce3fe"><path d="M 506.5 805.027344 L 506.5 836.503906 L 505.394531 836.503906 L 505.949219 835.550781 L 533.214844 851.289062 L 532.664062 852.238281 L 531.554688 852.238281 L 531.554688 820.765625 L 532.664062 820.765625 L 532.109375 821.71875 L 504.839844 805.980469 L 505.394531 805.027344 L 506.5 805.027344 M 504.289062 805.027344 L 504.289062 803.101562 L 505.949219 804.054688 L 533.214844 819.792969 L 533.769531 820.101562 L 533.769531 854.164062 L 532.109375 853.214844 L 504.839844 837.476562 L 504.289062 837.167969 Z M 504.289062 805.027344 " clip-rule="nonzero"/></clipPath><clipPath id="51963c29c3"><path d="M 505.03125 805.003906 L 532.824219 805.003906 L 532.824219 852.558594 L 505.03125 852.558594 Z M 505.03125 805.003906 " clip-rule="nonzero"/></clipPath><clipPath id="fe36260251"><path d="M 505.394531 805.027344 L 505.394531 836.503906 L 532.664062 852.238281 L 532.664062 820.765625 Z M 505.394531 805.027344 " clip-rule="nonzero"/></clipPath><clipPath id="b3cac47e16"><path d="M 504 803 L 534 803 L 534 854.410156 L 504 854.410156 Z M 504 803 " clip-rule="nonzero"/></clipPath><clipPath id="e7c571bb5c"><path d="M 506.5 805.027344 L 506.5 836.503906 L 505.394531 836.503906 L 505.949219 835.550781 L 533.214844 851.289062 L 532.664062 852.238281 L 531.554688 852.238281 L 531.554688 820.765625 L 532.664062 820.765625 L 532.109375 821.71875 L 504.839844 805.980469 L 505.394531 805.027344 L 506.5 805.027344 M 504.289062 805.027344 L 504.289062 803.101562 L 505.949219 804.054688 L 533.214844 819.792969 L 533.769531 820.101562 L 533.769531 854.164062 L 532.109375 853.214844 L 504.839844 837.476562 L 504.289062 837.167969 Z M 504.289062 805.027344 " clip-rule="nonzero"/></clipPath><clipPath id="52c17a020e"><path d="M 717.164062 347 L 785.570312 347 L 785.570312 578.46875 L 717.164062 578.46875 Z M 717.164062 347 " clip-rule="nonzero"/></clipPath><clipPath id="c87a2bb6a1"><path d="M 720.753906 574.914062 C 718.5625 572.722656 717.457031 570.042969 717.457031 566.898438 L 717.457031 390.40625 L 785.273438 347.199219 L 785.273438 566.898438 C 785.273438 570.042969 784.257812 572.722656 782.21875 574.914062 C 780.183594 577.105469 777.441406 578.210938 773.988281 578.210938 L 728.765625 578.210938 C 725.625 578.210938 722.945312 577.125 720.753906 574.914062 " clip-rule="nonzero"/></clipPath><clipPath id="f2802e324d"><path d="M 717.164062 248.3125 L 785.570312 248.3125 L 785.570312 347.324219 L 717.164062 347.324219 Z M 717.164062 248.3125 " clip-rule="nonzero"/></clipPath><clipPath id="4170012352"><path d="M 717.457031 248.527344 L 785.273438 280.488281 L 785.273438 347.199219 L 717.457031 315.238281 Z M 717.457031 248.527344 " clip-rule="nonzero"/></clipPath><clipPath id="88a9d57fd9"><path d="M 716.085938 246.511719 L 786.652344 246.511719 L 786.652344 349 L 716.085938 349 Z M 716.085938 246.511719 " clip-rule="nonzero"/></clipPath><clipPath id="134d94d696"><path d="M 718.5625 250.273438 L 784.167969 281.195312 L 784.167969 345.449219 L 718.5625 314.53125 Z M 716.351562 246.777344 L 716.351562 315.945312 L 716.992188 316.253906 L 784.808594 348.195312 L 786.382812 348.949219 L 786.382812 279.777344 L 785.738281 279.46875 L 717.921875 247.53125 Z M 716.351562 246.777344 " clip-rule="nonzero"/></clipPath><clipPath id="a9ea020034"><path d="M 717.164062 248.3125 L 785.570312 248.3125 L 785.570312 347.324219 L 717.164062 347.324219 Z M 717.164062 248.3125 " clip-rule="nonzero"/></clipPath><clipPath id="a6474a13b7"><path d="M 717.457031 248.527344 L 785.273438 280.488281 L 785.273438 347.199219 L 717.457031 315.238281 Z M 717.457031 248.527344 " clip-rule="nonzero"/></clipPath><clipPath id="58edc2f3cd"><path d="M 716.085938 246.511719 L 786.652344 246.511719 L 786.652344 349 L 716.085938 349 Z M 716.085938 246.511719 " clip-rule="nonzero"/></clipPath><clipPath id="bdc3f569ad"><path d="M 718.5625 250.273438 L 784.167969 281.195312 L 784.167969 345.449219 L 718.5625 314.53125 Z M 716.351562 246.777344 L 716.351562 315.945312 L 716.992188 316.253906 L 784.808594 348.195312 L 786.382812 348.949219 L 786.382812 279.777344 L 785.738281 279.46875 L 717.921875 247.53125 Z M 716.351562 246.777344 " clip-rule="nonzero"/></clipPath><clipPath id="01864cf94b"><path d="M 760.460938 822.4375 L 861.785156 822.4375 L 861.785156 938 L 760.460938 938 Z M 760.460938 822.4375 " clip-rule="nonzero"/></clipPath><clipPath id="7349ec4754"><path d="M 819.96875 937.898438 C 811.449219 937.898438 803.589844 936.460938 796.375 933.605469 C 789.160156 930.75 782.894531 926.746094 777.628906 921.566406 C 772.359375 916.386719 768.222656 910.300781 765.253906 903.304688 C 762.289062 896.308594 760.804688 888.628906 760.804688 880.328125 C 760.804688 872.03125 762.289062 864.371094 765.253906 857.375 C 768.222656 850.382812 772.359375 844.273438 777.695312 839.117188 C 783.027344 833.960938 789.316406 829.929688 796.53125 827.074219 C 803.746094 824.21875 811.625 822.78125 820.148438 822.78125 C 828.335938 822.78125 836.039062 824.152344 843.253906 826.898438 C 850.46875 829.644531 856.558594 833.761719 861.515625 839.269531 L 853.921875 846.863281 C 849.296875 842.125 844.164062 838.695312 838.5625 836.59375 C 832.960938 834.492188 826.921875 833.449219 820.457031 833.449219 C 813.660156 833.449219 807.355469 834.601562 801.53125 836.925781 C 795.710938 839.25 790.644531 842.523438 786.347656 846.796875 C 782.054688 851.070312 778.667969 856.003906 776.234375 861.671875 C 773.796875 867.335938 772.601562 873.554688 772.601562 880.351562 C 772.601562 887.148438 773.820312 893.367188 776.234375 899.03125 C 778.644531 904.699219 782.03125 909.65625 786.347656 913.90625 C 790.664062 918.15625 795.734375 921.453125 801.53125 923.757812 C 807.332031 926.058594 813.660156 927.230469 820.457031 927.230469 C 826.921875 927.230469 832.960938 926.148438 838.5625 924 C 844.164062 921.851562 849.273438 918.398438 853.921875 913.664062 L 861.515625 921.253906 C 856.558594 926.746094 850.46875 930.90625 843.253906 933.695312 C 836.039062 936.484375 828.269531 937.898438 819.96875 937.898438 " clip-rule="nonzero"/></clipPath><clipPath id="8fcb5dac23"><path d="M 863.929688 851 L 950.777344 851 L 950.777344 938 L 863.929688 938 Z M 863.929688 851 " clip-rule="nonzero"/></clipPath><clipPath id="c11192ab2c"><path d="M 907.109375 927.542969 C 913.265625 927.542969 918.6875 926.167969 923.445312 923.425781 C 928.203125 920.679688 931.921875 916.804688 934.691406 911.78125 C 937.457031 906.757812 938.808594 900.980469 938.808594 894.40625 C 938.808594 887.722656 937.433594 881.902344 934.691406 876.941406 C 931.945312 871.984375 928.203125 868.132812 923.445312 865.390625 C 918.6875 862.644531 913.308594 861.273438 907.265625 861.273438 C 901.222656 861.273438 895.84375 862.644531 891.109375 865.390625 C 886.371094 868.132812 882.585938 871.984375 879.796875 876.941406 C 877.007812 881.902344 875.59375 887.722656 875.59375 894.40625 C 875.59375 900.980469 876.988281 906.78125 879.796875 911.78125 C 882.609375 916.785156 886.347656 920.679688 891.042969 923.425781 C 895.734375 926.167969 901.089844 927.542969 907.132812 927.542969 M 907.132812 937.722656 C 898.832031 937.722656 891.460938 935.863281 884.976562 932.144531 C 878.492188 928.425781 873.402344 923.292969 869.617188 916.695312 C 865.832031 910.101562 863.949219 902.683594 863.949219 894.382812 C 863.949219 885.886719 865.832031 878.382812 869.617188 871.917969 C 873.402344 865.457031 878.515625 860.386719 884.976562 856.710938 C 891.441406 853.039062 898.832031 851.222656 907.132812 851.222656 C 915.542969 851.222656 923.003906 853.082031 929.53125 856.800781 C 936.0625 860.519531 941.175781 865.589844 944.894531 871.984375 C 948.613281 878.382812 950.472656 885.863281 950.472656 894.382812 C 950.472656 902.796875 948.613281 910.253906 944.894531 916.785156 C 941.175781 923.3125 936.019531 928.425781 929.445312 932.144531 C 922.871094 935.863281 915.433594 937.722656 907.132812 937.722656 " clip-rule="nonzero"/></clipPath><clipPath id="70b1b34441"><path d="M 967.394531 851 L 1107.851562 851 L 1107.851562 937 L 967.394531 937 Z M 967.394531 851 " clip-rule="nonzero"/></clipPath><clipPath id="c01e78b8b0"><path d="M 967.425781 936.925781 L 967.425781 852.042969 L 978.425781 852.042969 L 978.425781 874.996094 L 976.65625 870.945312 C 979.246094 864.8125 983.429688 859.988281 989.183594 856.46875 C 994.9375 852.949219 1001.777344 851.222656 1009.636719 851.222656 C 1017.9375 851.222656 1024.996094 853.304688 1030.816406 857.441406 C 1036.640625 861.582031 1040.402344 867.824219 1042.128906 876.125 L 1037.589844 874.351562 C 1040.070312 867.449219 1044.453125 861.890625 1050.761719 857.621094 C 1057.070312 853.347656 1064.636719 851.222656 1073.46875 851.222656 C 1080.375 851.222656 1086.375 852.550781 1091.507812 855.183594 C 1096.644531 857.820312 1100.605469 861.847656 1103.484375 867.226562 C 1106.359375 872.605469 1107.777344 879.398438 1107.777344 887.589844 L 1107.777344 936.925781 L 1096.289062 936.925781 L 1096.289062 888.742188 C 1096.289062 879.796875 1094.164062 873.046875 1089.894531 868.445312 C 1085.621094 863.839844 1079.621094 861.582031 1071.875 861.582031 C 1066.054688 861.582031 1061.007812 862.800781 1056.757812 865.210938 C 1052.507812 867.625 1049.210938 871.144531 1046.910156 875.726562 C 1044.605469 880.308594 1043.433594 885.839844 1043.433594 892.304688 L 1043.433594 936.925781 L 1031.945312 936.925781 L 1031.945312 888.742188 C 1031.945312 879.796875 1029.800781 873.046875 1025.484375 868.445312 C 1021.167969 863.839844 1015.125 861.582031 1007.378906 861.582031 C 1001.667969 861.582031 996.644531 862.800781 992.347656 865.210938 C 988.054688 867.625 984.710938 871.144531 982.410156 875.726562 C 980.109375 880.308594 978.9375 885.839844 978.9375 892.304688 L 978.9375 936.925781 Z M 967.425781 936.925781 " clip-rule="nonzero"/></clipPath><clipPath id="43a071ffce"><path d="M 868.164062 248.523438 L 1138.5 248.523438 L 1138.5 578 L 868.164062 578 Z M 868.164062 248.523438 " clip-rule="nonzero"/></clipPath><clipPath id="56aafc6b70"><path d="M 871.460938 574.910156 C 869.269531 572.71875 868.164062 570.039062 868.164062 566.894531 L 868.164062 260.296875 C 868.164062 256.84375 869.179688 254.011719 871.214844 251.820312 C 873.253906 249.628906 876.019531 248.523438 879.472656 248.523438 L 922.789062 248.523438 C 926.242188 248.523438 929.074219 249.628906 931.265625 251.820312 C 933.457031 254.011719 934.5625 256.84375 934.5625 260.296875 L 934.5625 381.347656 L 1072.105469 381.347656 L 1072.105469 260.296875 C 1072.105469 256.84375 1073.1875 254.011719 1075.402344 251.820312 C 1077.617188 249.628906 1080.25 248.523438 1083.390625 248.523438 L 1127.195312 248.523438 C 1130.648438 248.523438 1133.394531 249.628906 1135.429688 251.820312 C 1137.464844 254.011719 1138.484375 256.84375 1138.484375 260.296875 L 1138.484375 566.894531 C 1138.484375 570.039062 1137.464844 572.71875 1135.429688 574.910156 C 1133.394531 577.097656 1130.648438 578.207031 1127.195312 578.207031 L 1083.390625 578.207031 C 1080.25 578.207031 1077.570312 577.121094 1075.378906 574.910156 C 1073.1875 572.695312 1072.082031 570.039062 1072.082031 566.894531 L 1072.082031 441.152344 L 934.5625 441.152344 L 934.5625 566.894531 C 934.5625 570.039062 933.457031 572.71875 931.265625 574.910156 C 929.074219 577.097656 926.242188 578.207031 922.789062 578.207031 L 879.472656 578.207031 C 876.328125 578.207031 873.652344 577.121094 871.460938 574.910156 " clip-rule="nonzero"/></clipPath><clipPath id="d5b8cd9b2d"><path d="M 1132.285156 851.039062 L 1218.730469 851.039062 L 1218.730469 968.472656 L 1132.285156 968.472656 Z M 1132.285156 851.039062 " clip-rule="nonzero"/></clipPath><clipPath id="5f6744c126"><path d="M 1175.484375 927.550781 C 1181.527344 927.550781 1186.90625 926.175781 1191.644531 923.433594 C 1196.378906 920.6875 1200.164062 916.816406 1202.953125 911.789062 C 1205.742188 906.765625 1207.160156 900.988281 1207.160156 894.414062 C 1207.160156 887.84375 1205.765625 882.066406 1202.953125 877.105469 C 1200.140625 872.148438 1196.378906 868.277344 1191.644531 865.464844 C 1186.90625 862.652344 1181.503906 861.257812 1175.484375 861.257812 C 1169.464844 861.257812 1164.019531 862.652344 1159.238281 865.464844 C 1154.457031 868.277344 1150.671875 872.148438 1147.929688 877.105469 C 1145.183594 882.066406 1143.8125 887.84375 1143.8125 894.414062 C 1143.8125 900.988281 1145.183594 906.789062 1147.929688 911.789062 C 1150.671875 916.792969 1154.457031 920.6875 1159.238281 923.433594 C 1164.019531 926.175781 1169.441406 927.550781 1175.484375 927.550781 M 1176.28125 937.730469 C 1168.957031 937.730469 1162.316406 936.027344 1156.40625 932.640625 C 1150.496094 929.253906 1145.757812 924.339844 1142.261719 917.921875 C 1138.765625 911.503906 1136.992188 903.667969 1136.992188 894.394531 C 1136.992188 885.121094 1138.71875 877.285156 1142.171875 870.863281 C 1145.625 864.445312 1150.320312 859.578125 1156.226562 856.234375 C 1162.136719 852.890625 1168.84375 851.230469 1176.28125 851.230469 C 1184.359375 851.230469 1191.621094 853.046875 1198.015625 856.65625 C 1204.414062 860.261719 1209.460938 865.332031 1213.132812 871.839844 C 1216.808594 878.347656 1218.625 885.871094 1218.625 894.394531 C 1218.625 903.027344 1216.785156 910.550781 1213.132812 917.035156 C 1209.484375 923.523438 1204.4375 928.566406 1198.015625 932.242188 C 1191.597656 935.917969 1184.359375 937.730469 1176.28125 937.730469 M 1132.480469 968.277344 L 1132.480469 852.050781 L 1143.480469 852.050781 L 1143.480469 877.59375 L 1142.351562 894.570312 L 1143.964844 911.703125 L 1143.964844 968.277344 Z M 1132.480469 968.277344 " clip-rule="nonzero"/></clipPath><clipPath id="bacb7a0984"><path d="M 1228 851.039062 L 1300 851.039062 L 1300 938 L 1228 938 Z M 1228 851.039062 " clip-rule="nonzero"/></clipPath><clipPath id="d6528fcc2b"><path d="M 1288.808594 936.914062 L 1288.808594 918.164062 L 1288.324219 915.089844 L 1288.324219 883.726562 C 1288.324219 876.507812 1286.308594 870.953125 1282.257812 867.082031 C 1278.207031 863.207031 1272.210938 861.257812 1264.21875 861.257812 C 1258.730469 861.257812 1253.507812 862.1875 1248.550781 864.003906 C 1243.589844 865.820312 1239.386719 868.253906 1235.933594 871.285156 L 1230.753906 862.71875 C 1235.070312 859.046875 1240.25 856.234375 1246.269531 854.242188 C 1252.289062 852.25 1258.6875 851.230469 1265.371094 851.230469 C 1276.371094 851.230469 1284.847656 853.953125 1290.824219 859.398438 C 1296.800781 864.84375 1299.789062 873.121094 1299.789062 884.210938 L 1299.789062 936.914062 Z M 1259.550781 937.710938 C 1253.195312 937.710938 1247.664062 936.667969 1242.972656 934.566406 C 1238.277344 932.464844 1234.691406 929.5625 1232.214844 925.847656 C 1229.734375 922.128906 1228.496094 917.832031 1228.496094 912.984375 C 1228.496094 908.558594 1229.535156 904.554688 1231.636719 900.945312 C 1233.742188 897.335938 1237.195312 894.414062 1241.976562 892.222656 C 1246.757812 890.03125 1253.21875 888.902344 1261.296875 888.902344 L 1290.582031 888.902344 L 1290.582031 897.46875 L 1261.652344 897.46875 C 1253.460938 897.46875 1247.773438 898.929688 1244.585938 901.832031 C 1241.398438 904.730469 1239.828125 908.359375 1239.828125 912.652344 C 1239.828125 917.5 1241.710938 921.375 1245.496094 924.296875 C 1249.277344 927.21875 1254.546875 928.65625 1261.34375 928.65625 C 1267.804688 928.65625 1273.382812 927.171875 1278.074219 924.207031 C 1282.769531 921.242188 1286.175781 916.949219 1288.34375 911.347656 L 1290.933594 919.273438 C 1288.789062 924.871094 1285.027344 929.34375 1279.691406 932.683594 C 1274.355469 936.027344 1267.652344 937.6875 1259.570312 937.6875 " clip-rule="nonzero"/></clipPath><clipPath id="ca477a7419"><path d="M 1183 248.523438 L 1479.484375 248.523438 L 1479.484375 578.324219 L 1183 578.324219 Z M 1183 248.523438 " clip-rule="nonzero"/></clipPath><clipPath id="2831faf269"><path d="M 1186.296875 575.375 C 1184.257812 573.492188 1183.242188 571.144531 1183.242188 568.3125 C 1183.242188 567.050781 1183.859375 565.167969 1185.121094 562.667969 L 1290.148438 410.054688 L 1191.71875 264.058594 C 1190.457031 262.179688 1189.835938 260.296875 1189.835938 258.414062 C 1189.835938 255.582031 1190.855469 253.234375 1192.890625 251.355469 C 1194.925781 249.472656 1197.207031 248.523438 1199.730469 248.523438 L 1249.175781 248.523438 C 1254.820312 248.523438 1259.691406 251.511719 1263.785156 257.464844 L 1332.535156 358.261719 L 1401.769531 257.464844 C 1405.222656 251.511719 1410.089844 248.523438 1416.378906 248.523438 L 1463.011719 248.523438 C 1465.515625 248.523438 1467.792969 249.472656 1469.832031 251.355469 C 1471.867188 253.234375 1472.886719 255.605469 1472.886719 258.414062 C 1472.886719 259.675781 1472.242188 261.558594 1471.003906 264.058594 L 1372.574219 410.054688 L 1478.0625 562.644531 C 1479.015625 564.527344 1479.480469 566.410156 1479.480469 568.289062 C 1479.480469 571.125 1478.527344 573.46875 1476.648438 575.351562 C 1474.765625 577.230469 1472.398438 578.183594 1469.585938 578.183594 L 1419.210938 578.183594 C 1413.566406 578.183594 1408.695312 575.351562 1404.601562 569.707031 L 1330.1875 463.75 L 1256.726562 569.730469 C 1252.628906 575.375 1247.78125 578.207031 1242.117188 578.207031 L 1193.132812 578.207031 C 1190.609375 578.207031 1188.332031 577.277344 1186.296875 575.375 " clip-rule="nonzero"/></clipPath><clipPath id="0b1b09ebcf"><path d="M 1324.410156 851.105469 L 1403 851.105469 L 1403 936.957031 L 1324.410156 936.957031 Z M 1324.410156 851.105469 " clip-rule="nonzero"/></clipPath><clipPath id="0298fa5f6a"><path d="M 1324.542969 936.914062 L 1324.542969 852.03125 L 1335.542969 852.03125 L 1335.542969 875.316406 L 1333.769531 870.957031 C 1336.472656 864.824219 1340.789062 860 1346.695312 856.480469 C 1352.605469 852.960938 1359.667969 851.234375 1367.855469 851.234375 C 1374.761719 851.234375 1380.828125 852.5625 1386.050781 855.195312 C 1391.273438 857.832031 1395.371094 861.859375 1398.335938 867.238281 C 1401.300781 872.617188 1402.785156 879.410156 1402.785156 887.601562 L 1402.785156 936.914062 L 1391.320312 936.914062 L 1391.320312 888.730469 C 1391.320312 879.789062 1389.082031 873.035156 1384.613281 868.433594 C 1380.140625 863.828125 1373.855469 861.570312 1365.777344 861.570312 C 1359.734375 861.570312 1354.488281 862.789062 1350.015625 865.203125 C 1345.546875 867.613281 1342.09375 871.15625 1339.660156 875.738281 C 1337.222656 880.320312 1336.027344 885.851562 1336.027344 892.316406 L 1336.027344 936.914062 Z M 1324.542969 936.914062 " clip-rule="nonzero"/></clipPath><clipPath id="876aaab9d1"><path d="M 1403.15625 852 L 1495 852 L 1495 969.222656 L 1403.15625 969.222656 Z M 1403.15625 852 " clip-rule="nonzero"/></clipPath><clipPath id="687865b710"><path d="M 1446.609375 939.351562 L 1407.476562 852.054688 L 1419.453125 852.054688 L 1454.023438 929.964844 Z M 1423.964844 969.097656 C 1419.984375 969.097656 1416.175781 968.457031 1412.566406 967.148438 C 1408.960938 965.84375 1405.859375 963.917969 1403.269531 961.328125 L 1408.605469 952.761719 C 1410.753906 954.800781 1413.097656 956.394531 1415.644531 957.523438 C 1418.191406 958.652344 1421 959.226562 1424.144531 959.226562 C 1427.90625 959.226562 1431.183594 958.164062 1433.925781 956.082031 C 1436.671875 954.003906 1439.285156 950.285156 1441.761719 945.015625 L 1447.25 932.578125 L 1448.535156 930.804688 L 1483.460938 852.054688 L 1494.773438 852.054688 L 1452.253906 947.097656 C 1449.886719 952.585938 1447.273438 956.945312 1444.417969 960.199219 C 1441.5625 963.453125 1438.464844 965.710938 1435.121094 967.0625 C 1431.78125 968.410156 1428.0625 969.074219 1423.964844 969.074219 " clip-rule="nonzero"/></clipPath></defs><rect x="-152.1" width="1825.2" fill="#ffffff" y="-112.499995" height="1349.99994" fill-opacity="1"/><rect x="-152.1" width="1825.2" fill="#ffffff" y="-112.499995" height="1349.99994" fill-opacity="1"/><g clip-path="url(#2ec57458c0)"><g clip-path="url(#1a14896cd8)"><path fill="#000000" d="M 17.394531 823.75 L 132.773438 823.75 L 132.773438 936.917969 L 17.394531 936.917969 Z M 17.394531 823.75 " fill-opacity="1" fill-rule="nonzero"/></g></g><g clip-path="url(#1c3a1b7e1c)"><g clip-path="url(#7e7b52461f)"><path fill="#2ae1aa" d="M 6 112.5 L 609.089844 112.5 L 609.089844 715.589844 L 6 715.589844 Z M 6 112.5 " fill-opacity="1" fill-rule="nonzero"/></g></g><g clip-path="url(#996419e97a)"><g clip-path="url(#6535422549)"><path fill="#2e6af3" d="M 6 112.5 L 609.089844 112.5 L 609.089844 715.589844 L 6 715.589844 Z M 6 112.5 " fill-opacity="1" fill-rule="nonzero"/></g></g><g clip-path="url(#218cadca7a)"><g clip-path="url(#78a6feb3ce)"><path fill="#0050aa" d="M 6 112.5 L 609.089844 112.5 L 609.089844 715.589844 L 6 715.589844 Z M 6 112.5 " fill-opacity="1" fill-rule="nonzero"/></g></g><g clip-path="url(#2773816167)"><g clip-path="url(#3ca8a097f6)"><path fill="#0050aa" d="M 6 112.5 L 609.089844 112.5 L 609.089844 715.589844 L 6 715.589844 Z M 6 112.5 " fill-opacity="1" fill-rule="nonzero"/></g></g><g clip-path="url(#71cd965df6)"><g clip-path="url(#ad9791cb0f)"><path fill="#2e6af3" d="M 6 112.5 L 609.089844 112.5 L 609.089844 715.589844 L 6 715.589844 Z M 6 112.5 " fill-opacity="1" fill-rule="nonzero"/></g></g><g clip-path="url(#9ae55c8a8b)"><g clip-path="url(#7ef310b5bc)"><path fill="#2ae1aa" d="M 6 112.5 L 609.089844 112.5 L 609.089844 715.589844 L 6 715.589844 Z M 6 112.5 " fill-opacity="1" fill-rule="nonzero"/></g></g><g clip-path="url(#b070c75ad1)"><g clip-path="url(#8832d968a6)"><path fill="#2ae1aa" d="M 6 112.5 L 609.089844 112.5 L 609.089844 715.589844 L 6 715.589844 Z M 6 112.5 " fill-opacity="1" fill-rule="nonzero"/></g></g><g clip-path="url(#758342a1c2)"><g clip-path="url(#db990fc37c)"><path fill="#2ae1aa" d="M 6 112.5 L 609.089844 112.5 L 609.089844 715.589844 L 6 715.589844 Z M 6 112.5 " fill-opacity="1" fill-rule="nonzero"/></g></g><g clip-path="url(#d5158d2612)"><g clip-path="url(#e1c9f95db2)"><path fill="#0050aa" d="M 174.003906 792.035156 L 726.746094 792.035156 L 726.746094 950.136719 L 174.003906 950.136719 Z M 174.003906 792.035156 " fill-opacity="1" fill-rule="nonzero"/></g></g><g clip-path="url(#e07631ec24)"><g clip-path="url(#c18a9e4c9e)"><path fill="#0050aa" d="M 174.003906 792.035156 L 726.746094 792.035156 L 726.746094 950.136719 L 174.003906 950.136719 Z M 174.003906 792.035156 " fill-opacity="1" fill-rule="nonzero"/></g></g><g clip-path="url(#3b5dfbac81)"><g clip-path="url(#983bec43e1)"><path fill="#0050aa" d="M 174.003906 792.035156 L 726.746094 792.035156 L 726.746094 950.136719 L 174.003906 950.136719 Z M 174.003906 792.035156 " fill-opacity="1" fill-rule="nonzero"/></g></g><g clip-path="url(#c5dd4f8fbb)"><g clip-path="url(#0c70ae54b4)"><path fill="#0050aa" d="M 174.003906 792.035156 L 726.746094 792.035156 L 726.746094 950.136719 L 174.003906 950.136719 Z M 174.003906 792.035156 " fill-opacity="1" fill-rule="nonzero"/></g></g><g clip-path="url(#d2d5ba738c)"><g clip-path="url(#8c43858f13)"><path fill="#0050aa" d="M 174.003906 792.035156 L 726.746094 792.035156 L 726.746094 950.136719 L 174.003906 950.136719 Z M 174.003906 792.035156 " fill-opacity="1" fill-rule="nonzero"/></g></g><g clip-path="url(#91b4d6e5fb)"><g clip-path="url(#91fc383bfd)"><path fill="#0050aa" d="M 174.003906 792.035156 L 726.746094 792.035156 L 726.746094 950.136719 L 174.003906 950.136719 Z M 174.003906 792.035156 " fill-opacity="1" fill-rule="nonzero"/></g></g><g clip-path="url(#50943d7679)"><g clip-path="url(#29ffdbedff)"><path fill="#0050aa" d="M 174.003906 792.035156 L 726.746094 792.035156 L 726.746094 950.136719 L 174.003906 950.136719 Z M 174.003906 792.035156 " fill-opacity="1" fill-rule="nonzero"/></g></g><g clip-path="url(#7ffd24f988)"><g clip-path="url(#9c397c582f)"><path fill="#2ae1aa" d="M 174.003906 792.035156 L 726.746094 792.035156 L 726.746094 950.136719 L 174.003906 950.136719 Z M 174.003906 792.035156 " fill-opacity="1" fill-rule="nonzero"/></g></g><g clip-path="url(#6b9b68523d)"><g clip-path="url(#9f5a6ce3fe)"><path fill="#2ae1aa" d="M 174.003906 792.035156 L 726.746094 792.035156 L 726.746094 950.136719 L 174.003906 950.136719 Z M 174.003906 792.035156 " fill-opacity="1" fill-rule="nonzero"/></g></g><g clip-path="url(#51963c29c3)"><g clip-path="url(#fe36260251)"><path fill="#2ae1aa" d="M 174.003906 792.035156 L 726.746094 792.035156 L 726.746094 950.136719 L 174.003906 950.136719 Z M 174.003906 792.035156 " fill-opacity="1" fill-rule="nonzero"/></g></g><g clip-path="url(#b3cac47e16)"><g clip-path="url(#e7c571bb5c)"><path fill="#2ae1aa" d="M 174.003906 792.035156 L 726.746094 792.035156 L 726.746094 950.136719 L 174.003906 950.136719 Z M 174.003906 792.035156 " fill-opacity="1" fill-rule="nonzero"/></g></g><g clip-path="url(#52c17a020e)"><g clip-path="url(#c87a2bb6a1)"><path fill="#0050aa" d="M 705.285156 235.710938 L 797.453125 235.710938 L 797.453125 589.269531 L 705.285156 589.269531 Z M 705.285156 235.710938 " fill-opacity="1" fill-rule="nonzero"/></g></g><g clip-path="url(#f2802e324d)"><g clip-path="url(#4170012352)"><path fill="#2ae1aa" d="M 705.285156 235.710938 L 797.453125 235.710938 L 797.453125 589.269531 L 705.285156 589.269531 Z M 705.285156 235.710938 " fill-opacity="1" fill-rule="nonzero"/></g></g><g clip-path="url(#88a9d57fd9)"><g clip-path="url(#134d94d696)"><path fill="#2ae1aa" d="M 705.285156 235.710938 L 797.453125 235.710938 L 797.453125 589.269531 L 705.285156 589.269531 Z M 705.285156 235.710938 " fill-opacity="1" fill-rule="nonzero"/></g></g><g clip-path="url(#a9ea020034)"><g clip-path="url(#a6474a13b7)"><path fill="#2ae1aa" d="M 705.285156 235.710938 L 797.453125 235.710938 L 797.453125 589.269531 L 705.285156 589.269531 Z M 705.285156 235.710938 " fill-opacity="1" fill-rule="nonzero"/></g></g><g clip-path="url(#58edc2f3cd)"><g clip-path="url(#bdc3f569ad)"><path fill="#2ae1aa" d="M 705.285156 235.710938 L 797.453125 235.710938 L 797.453125 589.269531 L 705.285156 589.269531 Z M 705.285156 235.710938 " fill-opacity="1" fill-rule="nonzero"/></g></g><g clip-path="url(#01864cf94b)"><g clip-path="url(#7349ec4754)"><path fill="#000000" d="M 749.738281 811.714844 L 1118.574219 811.714844 L 1118.574219 948.957031 L 749.738281 948.957031 Z M 749.738281 811.714844 " fill-opacity="1" fill-rule="nonzero"/></g></g><g clip-path="url(#8fcb5dac23)"><g clip-path="url(#c11192ab2c)"><path fill="#000000" d="M 749.738281 811.714844 L 1118.574219 811.714844 L 1118.574219 948.957031 L 749.738281 948.957031 Z M 749.738281 811.714844 " fill-opacity="1" fill-rule="nonzero"/></g></g><g clip-path="url(#70b1b34441)"><g clip-path="url(#c01e78b8b0)"><path fill="#000000" d="M 749.738281 811.714844 L 1118.574219 811.714844 L 1118.574219 948.957031 L 749.738281 948.957031 Z M 749.738281 811.714844 " fill-opacity="1" fill-rule="nonzero"/></g></g><g clip-path="url(#43a071ffce)"><g clip-path="url(#56aafc6b70)"><path fill="#0050aa" d="M 868.164062 248.523438 L 1138.5 248.523438 L 1138.5 577.996094 L 868.164062 577.996094 Z M 868.164062 248.523438 " fill-opacity="1" fill-rule="nonzero"/></g></g><g clip-path="url(#d5b8cd9b2d)"><g clip-path="url(#5f6744c126)"><path fill="#000000" d="M 1121.410156 840.164062 L 1310.613281 840.164062 L 1310.613281 979.347656 L 1121.410156 979.347656 Z M 1121.410156 840.164062 " fill-opacity="1" fill-rule="nonzero"/></g></g><g clip-path="url(#bacb7a0984)"><g clip-path="url(#d6528fcc2b)"><path fill="#000000" d="M 1121.410156 840.164062 L 1310.613281 840.164062 L 1310.613281 979.347656 L 1121.410156 979.347656 Z M 1121.410156 840.164062 " fill-opacity="1" fill-rule="nonzero"/></g></g><g clip-path="url(#ca477a7419)"><g clip-path="url(#2831faf269)"><path fill="#0050aa" d="M 1183.242188 248.523438 L 1479.484375 248.523438 L 1479.484375 578.324219 L 1183.242188 578.324219 Z M 1183.242188 248.523438 " fill-opacity="1" fill-rule="nonzero"/></g></g><g clip-path="url(#0b1b09ebcf)"><g clip-path="url(#0298fa5f6a)"><path fill="#000000" d="M 1313.472656 840.167969 L 1505.960938 840.167969 L 1505.960938 980.15625 L 1313.472656 980.15625 Z M 1313.472656 840.167969 " fill-opacity="1" fill-rule="nonzero"/></g></g><g clip-path="url(#876aaab9d1)"><g clip-path="url(#687865b710)"><path fill="#000000" d="M 1313.472656 840.167969 L 1505.960938 840.167969 L 1505.960938 980.15625 L 1313.472656 980.15625 Z M 1313.472656 840.167969 " fill-opacity="1" fill-rule="nonzero"/></g></g></svg>